ffmpeg version 4.3.1-2020-11-19-essentials_build-www.gyan.dev Copyright (c) 2000-2020 the FFmpeg developers
  built with gcc 10.2.0 (Rev5, Built by MSYS2 project)
  configuration: --enable-gpl --enable-version3 --enable-static --disable-w32threads --disable-autodetect --enable-fontconfig --enable-iconv --enable-gnutls --enable-libxml2 --enable-gmp --enable-lzma --enable-zlib --enable-libsrt --enable-libssh --enable-libzmq --enable-avisynth --enable-sdl2 --enable-libwebp --enable-libx264 --enable-libx265 --enable-libxvid --enable-libaom --enable-libopenjpeg --enable-libvpx --enable-libass --enable-libfreetype --enable-libfribidi --enable-libvidstab --enable-libvmaf --enable-libzimg --enable-amf --enable-cuda-llvm --enable-cuvid --enable-ffnvcodec --enable-nvdec --enable-nvenc --enable-d3d11va --enable-dxva2 --enable-libmfx --enable-libgme --enable-libopenmpt --enable-libopencore-amrwb --enable-libmp3lame --enable-libtheora --enable-libvo-amrwbenc --enable-libgsm --enable-libopencore-amrnb --enable-libopus --enable-libspeex --enable-libvorbis --enable-librubberband
  libavutil      56. 51.100 / 56. 51.100
  libavcodec     58. 91.100 / 58. 91.100
  libavformat    58. 45.100 / 58. 45.100
  libavdevice    58. 10.100 / 58. 10.100
  libavfilter     7. 85.100 /  7. 85.100
  libswscale      5.  7.100 /  5.  7.100
  libswresample   3.  7.100 /  3.  7.100
  libpostproc    55.  7.100 / 55.  7.100
Splitting the commandline.
Reading option '-v' ... matched as option 'v' (set logging level) with argument 'debug'.
Reading option '-nostdin' ... matched as option 'stdin' (enable or disable interaction on standard input) with argument 0.
Reading option '-progress' ... matched as option 'progress' (write program-readable progress information) with argument 'C:/Users/migab/AppData/Local/Temp/KritaFFmpegProgress.AppwdZ'.
Reading option '-r' ... matched as option 'r' (set frame rate (Hz value, fraction or abbreviation)) with argument '24'.
Reading option '-start_number' ... matched as AVOption 'start_number' with argument '0'.
Reading option '-i' ... matched as input url with argument 'D:/ART/PersonalProjects/Video/animation/Guppy Bowl/Final/frame%04d.png'.
Reading option '-crf' ... matched as AVOption 'crf' with argument '23'.
Reading option '-preset' ... matched as AVOption 'preset' with argument 'medium'.
Reading option '-profile:v' ... matched as option 'profile' (set profile) with argument 'baseline'.
Reading option '-pix_fmt' ... matched as option 'pix_fmt' (set pixel format) with argument 'yuv420p'.
Reading option '-y' ... matched as option 'y' (overwrite output files) with argument '1'.
Reading option 'D:/ART/PersonalProjects/Video/animation/Guppy Bowl/Final\GuppyBowl.mp4' ... matched as output url.
Finished splitting the commandline.
Parsing a group of options: global .
Applying option v (set logging level) with argument debug.
Applying option nostdin (enable or disable interaction on standard input) with argument 0.
Applying option progress (write program-readable progress information) with argument C:/Users/migab/AppData/Local/Temp/KritaFFmpegProgress.AppwdZ.
[file @ 000001f0a2e5e9c0] Setting default whitelist 'file,crypto,data'
Applying option y (overwrite output files) with argument 1.
Successfully parsed a group of options.
Parsing a group of options: input url D:/ART/PersonalProjects/Video/animation/Guppy Bowl/Final/frame%04d.png.
Applying option r (set frame rate (Hz value, fraction or abbreviation)) with argument 24.
Successfully parsed a group of options.
Opening an input file: D:/ART/PersonalProjects/Video/animation/Guppy Bowl/Final/frame%04d.png.
[image2 @ 000001f0a2e9ec40] Opening 'D:/ART/PersonalProjects/Video/animation/Guppy Bowl/Final/frame0000.png' for reading
[file @ 000001f0a2ea3340] Setting default whitelist 'file,crypto,data'
[AVIOContext @ 000001f0a2eab500] Statistics: 607683 bytes read, 0 seeks
[image2 @ 000001f0a2e9ec40] Opening 'D:/ART/PersonalProjects/Video/animation/Guppy Bowl/Final/frame0001.png' for reading
[file @ 000001f0a32f4840] Setting default whitelist 'file,crypto,data'
[AVIOContext @ 000001f0a32f49c0] Statistics: 607683 bytes read, 0 seeks
[image2 @ 000001f0a2e9ec40] Opening 'D:/ART/PersonalProjects/Video/animation/Guppy Bowl/Final/frame0002.png' for reading
[file @ 000001f0a32f4900] Setting default whitelist 'file,crypto,data'
[AVIOContext @ 000001f0a3389780] Statistics: 602388 bytes read, 0 seeks
[image2 @ 000001f0a2e9ec40] Opening 'D:/ART/PersonalProjects/Video/animation/Guppy Bowl/Final/frame0003.png' for reading
[file @ 000001f0a32f4900] Setting default whitelist 'file,crypto,data'
[AVIOContext @ 000001f0a2ea3380] Statistics: 602688 bytes read, 0 seeks
[image2 @ 000001f0a2e9ec40] Opening 'D:/ART/PersonalProjects/Video/animation/Guppy Bowl/Final/frame0004.png' for reading
[file @ 000001f0a32f4900] Setting default whitelist 'file,crypto,data'
[AVIOContext @ 000001f0a2ea3540] Statistics: 602680 bytes read, 0 seeks
[image2 @ 000001f0a2e9ec40] Opening 'D:/ART/PersonalProjects/Video/animation/Guppy Bowl/Final/frame0005.png' for reading
[file @ 000001f0a32f4900] Setting default whitelist 'file,crypto,data'
[AVIOContext @ 000001f0a2ea3700] Statistics: 602680 bytes read, 0 seeks
[image2 @ 000001f0a2e9ec40] Opening 'D:/ART/PersonalProjects/Video/animation/Guppy Bowl/Final/frame0006.png' for reading
[file @ 000001f0a32f4900] Setting default whitelist 'file,crypto,data'
[AVIOContext @ 000001f0a2ea38c0] Statistics: 604986 bytes read, 0 seeks
[image2 @ 000001f0a2e9ec40] Opening 'D:/ART/PersonalProjects/Video/animation/Guppy Bowl/Final/frame0007.png' for reading
[file @ 000001f0a32f4900] Setting default whitelist 'file,crypto,data'
[AVIOContext @ 000001f0a2ea3a80] Statistics: 604986 bytes read, 0 seeks
[image2 @ 000001f0a2e9ec40] Opening 'D:/ART/PersonalProjects/Video/animation/Guppy Bowl/Final/frame0008.png' for reading
[file @ 000001f0a32f4900] Setting default whitelist 'file,crypto,data'
[AVIOContext @ 000001f0a2ea3c40] Statistics: 609353 bytes read, 0 seeks
[image2 @ 000001f0a2e9ec40] Probe buffer size limit of 5000000 bytes reached
Input #0, image2, from 'D:/ART/PersonalProjects/Video/animation/Guppy Bowl/Final/frame%04d.png':
  Duration: 00:00:05.12, start: 0.000000, bitrate: N/A
    Stream #0:0, 9, 1/25: Video: png, 1 reference frame, rgba(pc), 2080x2080 [SAR 11811:11811 DAR 1:1], 0/1, 25 fps, 25 tbr, 25 tbn, 25 tbc
Successfully opened the file.
Parsing a group of options: output url D:/ART/PersonalProjects/Video/animation/Guppy Bowl/Final\GuppyBowl.mp4.
Applying option profile:v (set profile) with argument baseline.
Applying option pix_fmt (set pixel format) with argument yuv420p.
Successfully parsed a group of options.
Opening an output file: D:/ART/PersonalProjects/Video/animation/Guppy Bowl/Final\GuppyBowl.mp4.
[file @ 000001f0a32f4f00] Setting default whitelist 'file,crypto,data'
Successfully opened the file.
detected 12 logical cores
Stream mapping:
  Stream #0:0 -> #0:0 (png (native) -> h264 (libx264))
cur_dts is invalid st:0 (0) [init:0 i_done:0 finish:0] (this is harmless if it occurs once at the start per stream)
    Last message repeated 9 times
[image2 @ 000001f0a2e9ec40] Opening 'D:/ART/PersonalProjects/Video/animation/Guppy Bowl/Final/frame0009.png' for reading
[file @ 000001f0a2ea3340] Setting default whitelist 'file,crypto,data'
[AVIOContext @ 000001f0a2efe900] Statistics: 615577 bytes read, 0 seeks
cur_dts is invalid st:0 (0) [init:0 i_done:0 finish:0] (this is harmless if it occurs once at the start per stream)
[image2 @ 000001f0a2e9ec40] Opening 'D:/ART/PersonalProjects/Video/animation/Guppy Bowl/Final/frame0010.png' for reading
[file @ 000001f0a2ea3340] Setting default whitelist 'file,crypto,data'
[AVIOContext @ 000001f0a2efe900] Statistics: 612651 bytes read, 0 seeks
cur_dts is invalid st:0 (0) [init:0 i_done:0 finish:0] (this is harmless if it occurs once at the start per stream)
[image2 @ 000001f0a2e9ec40] Opening 'D:/ART/PersonalProjects/Video/animation/Guppy Bowl/Final/frame0011.png' for reading
[file @ 000001f0a2ea3340] Setting default whitelist 'file,crypto,data'
[AVIOContext @ 000001f0a3449e80] Statistics: 612651 bytes read, 0 seeks
cur_dts is invalid st:0 (0) [init:0 i_done:0 finish:0] (this is harmless if it occurs once at the start per stream)
[image2 @ 000001f0a2e9ec40] Opening 'D:/ART/PersonalProjects/Video/animation/Guppy Bowl/Final/frame0012.png' for reading
[file @ 000001f0a2ea3340] Setting default whitelist 'file,crypto,data'
[AVIOContext @ 000001f0a48cbe00] Statistics: 613384 bytes read, 0 seeks
[graph 0 input from stream 0:0 @ 000001f0a487ab80] Setting 'video_size' to value '2080x2080'
[graph 0 input from stream 0:0 @ 000001f0a487ab80] Setting 'pix_fmt' to value '26'
[graph 0 input from stream 0:0 @ 000001f0a487ab80] Setting 'time_base' to value '1/24'
[graph 0 input from stream 0:0 @ 000001f0a487ab80] Setting 'pixel_aspect' to value '11811/11811'
[graph 0 input from stream 0:0 @ 000001f0a487ab80] Setting 'frame_rate' to value '24/1'
[graph 0 input from stream 0:0 @ 000001f0a487ab80] w:2080 h:2080 pixfmt:rgba tb:1/24 fr:24/1 sar:11811/11811
[format @ 000001f0a487bd80] Setting 'pix_fmts' to value 'yuv420p'
[auto_scaler_0 @ 000001f0a487b080] Setting 'flags' to value 'bicubic'
[auto_scaler_0 @ 000001f0a487b080] w:iw h:ih flags:'bicubic' interl:0
[format @ 000001f0a487bd80] auto-inserting filter 'auto_scaler_0' between the filter 'Parsed_null_0' and the filter 'format'
[AVFilterGraph @ 000001f0a2ea3340] query_formats: 4 queried, 2 merged, 1 already done, 0 delayed
[auto_scaler_0 @ 000001f0a487b080] w:2080 h:2080 fmt:rgba sar:11811/11811 -> w:2080 h:2080 fmt:yuv420p sar:1/1 flags:0x4
[libx264 @ 000001f0a341e180] using mv_range_thread = 56
[libx264 @ 000001f0a341e180] using SAR=1/1
[libx264 @ 000001f0a341e180] using cpu capabilities: MMX2 SSE2Fast SSSE3 SSE4.2 AVX FMA3 BMI2 AVX2
[libx264 @ 000001f0a341e180] profile Constrained Baseline, level 5.0, 4:2:0, 8-bit
[libx264 @ 000001f0a341e180] 264 - core 161 r3027 4121277 - H.264/MPEG-4 AVC codec - Copyleft 2003-2020 - http://www.videolan.org/x264.html - options: cabac=0 ref=3 deblock=1:0:0 analyse=0x1:0x111 me=hex subme=7 psy=1 psy_rd=1.00:0.00 mixed_ref=1 me_range=16 chroma_me=1 trellis=1 8x8dct=0 cqm=0 deadzone=21,11 fast_pskip=1 chroma_qp_offset=-2 threads=18 lookahead_threads=3 sliced_threads=0 nr=0 decimate=1 interlaced=0 bluray_compat=0 constrained_intra=0 bframes=0 weightp=0 keyint=250 keyint_min=24 scenecut=40 intra_refresh=0 rc_lookahead=40 rc=crf mbtree=1 crf=23.0 qcomp=0.60 qpmin=0 qpmax=69 qpstep=4 ip_ratio=1.40 aq=1:1.00
Output #0, mp4, to 'D:/ART/PersonalProjects/Video/animation/Guppy Bowl/Final\GuppyBowl.mp4':
  Metadata:
    encoder         : Lavf58.45.100
    Stream #0:0, 0, 1/12288: Video: h264 (libx264), 1 reference frame (avc1 / 0x31637661), yuv420p, 2080x2080 [SAR 1:1 DAR 1:1], 0/1, q=-1--1, 24 fps, 12288 tbn, 24 tbc
    Metadata:
      encoder         : Lavc58.91.100 libx264
    Side data:
      cpb: bitrate max/min/avg: 0/0/0 buffer size: 0 vbv_delay: N/A
Clipping frame in rate conversion by 0.000008
cur_dts is invalid st:0 (0) [init:1 i_done:0 finish:0] (this is harmless if it occurs once at the start per stream)
[image2 @ 000001f0a2e9ec40] Opening 'D:/ART/PersonalProjects/Video/animation/Guppy Bowl/Final/frame0013.png' for reading
[file @ 000001f0a487ae80] Setting default whitelist 'file,crypto,data'
[AVIOContext @ 000001f0a48d7d80] Statistics: 613384 bytes read, 0 seeks
cur_dts is invalid st:0 (0) [init:1 i_done:0 finish:0] (this is harmless if it occurs once at the start per stream)
[image2 @ 000001f0a2e9ec40] Opening 'D:/ART/PersonalProjects/Video/animation/Guppy Bowl/Final/frame0014.png' for reading
[file @ 000001f0a487a880] Setting default whitelist 'file,crypto,data'
[AVIOContext @ 000001f0a48d75c0] Statistics: 617281 bytes read, 0 seeks
cur_dts is invalid st:0 (0) [init:1 i_done:0 finish:0] (this is harmless if it occurs once at the start per stream)
[image2 @ 000001f0a2e9ec40] Opening 'D:/ART/PersonalProjects/Video/animation/Guppy Bowl/Final/frame0015.png' for reading
[file @ 000001f0a487aa80] Setting default whitelist 'file,crypto,data'
[AVIOContext @ 000001f0a48d7d80] Statistics: 616700 bytes read, 0 seeks
cur_dts is invalid st:0 (0) [init:1 i_done:0 finish:0] (this is harmless if it occurs once at the start per stream)
[image2 @ 000001f0a2e9ec40] Opening 'D:/ART/PersonalProjects/Video/animation/Guppy Bowl/Final/frame0016.png' for reading
[file @ 000001f0a487b180] Setting default whitelist 'file,crypto,data'
[AVIOContext @ 000001f0a48d7700] Statistics: 627895 bytes read, 0 seeks
cur_dts is invalid st:0 (0) [init:1 i_done:0 finish:0] (this is harmless if it occurs once at the start per stream)
[image2 @ 000001f0a2e9ec40] Opening 'D:/ART/PersonalProjects/Video/animation/Guppy Bowl/Final/frame0017.png' for reading
[file @ 000001f0a487a480] Setting default whitelist 'file,crypto,data'
[AVIOContext @ 000001f0a48d7c40] Statistics: 627895 bytes read, 0 seeks
cur_dts is invalid st:0 (0) [init:1 i_done:0 finish:0] (this is harmless if it occurs once at the start per stream)
[image2 @ 000001f0a2e9ec40] Opening 'D:/ART/PersonalProjects/Video/animation/Guppy Bowl/Final/frame0018.png' for reading
[file @ 000001f0a487b180] Setting default whitelist 'file,crypto,data'
[AVIOContext @ 000001f0a48d7980] Statistics: 614008 bytes read, 0 seeks
cur_dts is invalid st:0 (0) [init:1 i_done:0 finish:0] (this is harmless if it occurs once at the start per stream)
[image2 @ 000001f0a2e9ec40] Opening 'D:/ART/PersonalProjects/Video/animation/Guppy Bowl/Final/frame0019.png' for reading
[file @ 000001f0a487b880] Setting default whitelist 'file,crypto,data'
[AVIOContext @ 000001f0a48d7b00] Statistics: 614008 bytes read, 0 seeks
cur_dts is invalid st:0 (0) [init:1 i_done:0 finish:0] (this is harmless if it occurs once at the start per stream)
[image2 @ 000001f0a2e9ec40] Opening 'D:/ART/PersonalProjects/Video/animation/Guppy Bowl/Final/frame0020.png' for reading
[file @ 000001f0a487b180] Setting default whitelist 'file,crypto,data'
[AVIOContext @ 000001f0a48d7b00] Statistics: 609412 bytes read, 0 seeks
cur_dts is invalid st:0 (0) [init:1 i_done:0 finish:0] (this is harmless if it occurs once at the start per stream)
[image2 @ 000001f0a2e9ec40] Opening 'D:/ART/PersonalProjects/Video/animation/Guppy Bowl/Final/frame0021.png' for reading
[file @ 000001f0a487c080] Setting default whitelist 'file,crypto,data'
[AVIOContext @ 000001f0a48d75c0] Statistics: 607001 bytes read, 0 seeks
cur_dts is invalid st:0 (0) [init:1 i_done:0 finish:0] (this is harmless if it occurs once at the start per stream)
[image2 @ 000001f0a2e9ec40] Opening 'D:/ART/PersonalProjects/Video/animation/Guppy Bowl/Final/frame0022.png' for reading
[file @ 000001f0a487b380] Setting default whitelist 'file,crypto,data'
[AVIOContext @ 000001f0a48d7980] Statistics: 616350 bytes read, 0 seeks
cur_dts is invalid st:0 (0) [init:1 i_done:0 finish:0] (this is harmless if it occurs once at the start per stream)
[image2 @ 000001f0a2e9ec40] Opening 'D:/ART/PersonalProjects/Video/animation/Guppy Bowl/Final/frame0023.png' for reading
[file @ 000001f0a487b180] Setting default whitelist 'file,crypto,data'
[AVIOContext @ 000001f0a48d75c0] Statistics: 616350 bytes read, 0 seeks
cur_dts is invalid st:0 (0) [init:1 i_done:0 finish:0] (this is harmless if it occurs once at the start per stream)
[image2 @ 000001f0a2e9ec40] Opening 'D:/ART/PersonalProjects/Video/animation/Guppy Bowl/Final/frame0024.png' for reading
[file @ 000001f0a487b780] Setting default whitelist 'file,crypto,data'
[AVIOContext @ 000001f0a48d71c0] Statistics: 619401 bytes read, 0 seeks
cur_dts is invalid st:0 (0) [init:1 i_done:0 finish:0] (this is harmless if it occurs once at the start per stream)
[image2 @ 000001f0a2e9ec40] Opening 'D:/ART/PersonalProjects/Video/animation/Guppy Bowl/Final/frame0025.png' for reading
[file @ 000001f0a487bf80] Setting default whitelist 'file,crypto,data'
[AVIOContext @ 000001f0a48d75c0] Statistics: 619401 bytes read, 0 seeks
cur_dts is invalid st:0 (0) [init:1 i_done:0 finish:0] (this is harmless if it occurs once at the start per stream)
[image2 @ 000001f0a2e9ec40] Opening 'D:/ART/PersonalProjects/Video/animation/Guppy Bowl/Final/frame0026.png' for reading
[file @ 000001f0a487a780] Setting default whitelist 'file,crypto,data'
[AVIOContext @ 000001f0a48d7700] Statistics: 613976 bytes read, 0 seeks
cur_dts is invalid st:0 (0) [init:1 i_done:0 finish:0] (this is harmless if it occurs once at the start per stream)
[image2 @ 000001f0a2e9ec40] Opening 'D:/ART/PersonalProjects/Video/animation/Guppy Bowl/Final/frame0027.png' for reading
[file @ 000001f0a487a280] Setting default whitelist 'file,crypto,data'
[AVIOContext @ 000001f0a48d7d80] Statistics: 621114 bytes read, 0 seeks
cur_dts is invalid st:0 (0) [init:1 i_done:0 finish:0] (this is harmless if it occurs once at the start per stream)
[image2 @ 000001f0a2e9ec40] Opening 'D:/ART/PersonalProjects/Video/animation/Guppy Bowl/Final/frame0028.png' for reading
[file @ 000001f0a487a380] Setting default whitelist 'file,crypto,data'
[AVIOContext @ 000001f0a48d7b00] Statistics: 623700 bytes read, 0 seeks
cur_dts is invalid st:0 (0) [init:1 i_done:0 finish:0] (this is harmless if it occurs once at the start per stream)
[image2 @ 000001f0a2e9ec40] Opening 'D:/ART/PersonalProjects/Video/animation/Guppy Bowl/Final/frame0029.png' for reading
[file @ 000001f0a487ad80] Setting default whitelist 'file,crypto,data'
[AVIOContext @ 000001f0a48d7980] Statistics: 623700 bytes read, 0 seeks
cur_dts is invalid st:0 (0) [init:1 i_done:0 finish:0] (this is harmless if it occurs once at the start per stream)
[image2 @ 000001f0a2e9ec40] Opening 'D:/ART/PersonalProjects/Video/animation/Guppy Bowl/Final/frame0030.png' for reading
[file @ 000001f0a487ae80] Setting default whitelist 'file,crypto,data'
[AVIOContext @ 000001f0a48d7700] Statistics: 613426 bytes read, 0 seeks
cur_dts is invalid st:0 (0) [init:1 i_done:0 finish:0] (this is harmless if it occurs once at the start per stream)
[image2 @ 000001f0a2e9ec40] Opening 'D:/ART/PersonalProjects/Video/animation/Guppy Bowl/Final/frame0031.png' for reading
[file @ 000001f0a487bf80] Setting default whitelist 'file,crypto,data'
[AVIOContext @ 000001f0a48d7d80] Statistics: 613426 bytes read, 0 seeks
cur_dts is invalid st:0 (0) [init:1 i_done:0 finish:0] (this is harmless if it occurs once at the start per stream)
[image2 @ 000001f0a2e9ec40] Opening 'D:/ART/PersonalProjects/Video/animation/Guppy Bowl/Final/frame0032.png' for reading
[file @ 000001f0a487a380] Setting default whitelist 'file,crypto,data'
[AVIOContext @ 000001f0a48d7980] Statistics: 615553 bytes read, 0 seeks
cur_dts is invalid st:0 (0) [init:1 i_done:0 finish:0] (this is harmless if it occurs once at the start per stream)
[image2 @ 000001f0a2e9ec40] Opening 'D:/ART/PersonalProjects/Video/animation/Guppy Bowl/Final/frame0033.png' for reading
[file @ 000001f0a487b380] Setting default whitelist 'file,crypto,data'
[AVIOContext @ 000001f0a48d7c40] Statistics: 611176 bytes read, 0 seeks
cur_dts is invalid st:0 (0) [init:1 i_done:0 finish:0] (this is harmless if it occurs once at the start per stream)
[image2 @ 000001f0a2e9ec40] Opening 'D:/ART/PersonalProjects/Video/animation/Guppy Bowl/Final/frame0034.png' for reading
[file @ 000001f0a487b280] Setting default whitelist 'file,crypto,data'
[AVIOContext @ 000001f0a48d7700] Statistics: 613565 bytes read, 0 seeks
frame=   23 fps=0.0 q=0.0 size=       0kB time=00:00:00.00 bitrate=N/A speed=   0x    cur_dts is invalid st:0 (0) [init:1 i_done:0 finish:0] (this is harmless if it occurs once at the start per stream)
[image2 @ 000001f0a2e9ec40] Opening 'D:/ART/PersonalProjects/Video/animation/Guppy Bowl/Final/frame0035.png' for reading
[file @ 000001f0a487b580] Setting default whitelist 'file,crypto,data'
[AVIOContext @ 000001f0a48d71c0] Statistics: 613565 bytes read, 0 seeks
cur_dts is invalid st:0 (0) [init:1 i_done:0 finish:0] (this is harmless if it occurs once at the start per stream)
[image2 @ 000001f0a2e9ec40] Opening 'D:/ART/PersonalProjects/Video/animation/Guppy Bowl/Final/frame0036.png' for reading
[file @ 000001f0a487b580] Setting default whitelist 'file,crypto,data'
[AVIOContext @ 000001f0a48d7700] Statistics: 604277 bytes read, 0 seeks
cur_dts is invalid st:0 (0) [init:1 i_done:0 finish:0] (this is harmless if it occurs once at the start per stream)
[image2 @ 000001f0a2e9ec40] Opening 'D:/ART/PersonalProjects/Video/animation/Guppy Bowl/Final/frame0037.png' for reading
[file @ 000001f0a487a580] Setting default whitelist 'file,crypto,data'
[AVIOContext @ 000001f0a48d7840] Statistics: 604277 bytes read, 0 seeks
cur_dts is invalid st:0 (0) [init:1 i_done:0 finish:0] (this is harmless if it occurs once at the start per stream)
[image2 @ 000001f0a2e9ec40] Opening 'D:/ART/PersonalProjects/Video/animation/Guppy Bowl/Final/frame0038.png' for reading
[file @ 000001f0a487b680] Setting default whitelist 'file,crypto,data'
[AVIOContext @ 000001f0a48d7c40] Statistics: 600216 bytes read, 0 seeks
cur_dts is invalid st:0 (0) [init:1 i_done:0 finish:0] (this is harmless if it occurs once at the start per stream)
[image2 @ 000001f0a2e9ec40] Opening 'D:/ART/PersonalProjects/Video/animation/Guppy Bowl/Final/frame0039.png' for reading
[file @ 000001f0a487a580] Setting default whitelist 'file,crypto,data'
[AVIOContext @ 000001f0a48d75c0] Statistics: 604977 bytes read, 0 seeks
cur_dts is invalid st:0 (0) [init:1 i_done:0 finish:0] (this is harmless if it occurs once at the start per stream)
[image2 @ 000001f0a2e9ec40] Opening 'D:/ART/PersonalProjects/Video/animation/Guppy Bowl/Final/frame0040.png' for reading
[file @ 000001f0a487ad80] Setting default whitelist 'file,crypto,data'
[AVIOContext @ 000001f0a48d75c0] Statistics: 599112 bytes read, 0 seeks
cur_dts is invalid st:0 (0) [init:1 i_done:0 finish:0] (this is harmless if it occurs once at the start per stream)
[image2 @ 000001f0a2e9ec40] Opening 'D:/ART/PersonalProjects/Video/animation/Guppy Bowl/Final/frame0041.png' for reading
[file @ 000001f0a487a480] Setting default whitelist 'file,crypto,data'
[AVIOContext @ 000001f0a48d7d80] Statistics: 599112 bytes read, 0 seeks
cur_dts is invalid st:0 (0) [init:1 i_done:0 finish:0] (this is harmless if it occurs once at the start per stream)
[image2 @ 000001f0a2e9ec40] Opening 'D:/ART/PersonalProjects/Video/animation/Guppy Bowl/Final/frame0042.png' for reading
[file @ 000001f0a487bf80] Setting default whitelist 'file,crypto,data'
[AVIOContext @ 000001f0a48d7c40] Statistics: 598368 bytes read, 0 seeks
cur_dts is invalid st:0 (0) [init:1 i_done:0 finish:0] (this is harmless if it occurs once at the start per stream)
[image2 @ 000001f0a2e9ec40] Opening 'D:/ART/PersonalProjects/Video/animation/Guppy Bowl/Final/frame0043.png' for reading
[file @ 000001f0a487b180] Setting default whitelist 'file,crypto,data'
[AVIOContext @ 000001f0a48d75c0] Statistics: 598368 bytes read, 0 seeks
cur_dts is invalid st:0 (0) [init:1 i_done:0 finish:0] (this is harmless if it occurs once at the start per stream)
[image2 @ 000001f0a2e9ec40] Opening 'D:/ART/PersonalProjects/Video/animation/Guppy Bowl/Final/frame0044.png' for reading
[file @ 000001f0a487ba80] Setting default whitelist 'file,crypto,data'
[AVIOContext @ 000001f0a48d7b00] Statistics: 595001 bytes read, 0 seeks
cur_dts is invalid st:0 (0) [init:1 i_done:0 finish:0] (this is harmless if it occurs once at the start per stream)
[image2 @ 000001f0a2e9ec40] Opening 'D:/ART/PersonalProjects/Video/animation/Guppy Bowl/Final/frame0045.png' for reading
[file @ 000001f0a487aa80] Setting default whitelist 'file,crypto,data'
[AVIOContext @ 000001f0a48d71c0] Statistics: 592573 bytes read, 0 seeks
cur_dts is invalid st:0 (0) [init:1 i_done:0 finish:0] (this is harmless if it occurs once at the start per stream)
[image2 @ 000001f0a2e9ec40] Opening 'D:/ART/PersonalProjects/Video/animation/Guppy Bowl/Final/frame0046.png' for reading
[file @ 000001f0a487ad80] Setting default whitelist 'file,crypto,data'
[AVIOContext @ 000001f0a48d7980] Statistics: 590473 bytes read, 0 seeks
cur_dts is invalid st:0 (0) [init:1 i_done:0 finish:0] (this is harmless if it occurs once at the start per stream)
[image2 @ 000001f0a2e9ec40] Opening 'D:/ART/PersonalProjects/Video/animation/Guppy Bowl/Final/frame0047.png' for reading
[file @ 000001f0a487a280] Setting default whitelist 'file,crypto,data'
[AVIOContext @ 000001f0a48d7700] Statistics: 590473 bytes read, 0 seeks
cur_dts is invalid st:0 (0) [init:1 i_done:0 finish:0] (this is harmless if it occurs once at the start per stream)
[image2 @ 000001f0a2e9ec40] Opening 'D:/ART/PersonalProjects/Video/animation/Guppy Bowl/Final/frame0048.png' for reading
[file @ 000001f0a487b580] Setting default whitelist 'file,crypto,data'
[AVIOContext @ 000001f0a48d7080] Statistics: 590052 bytes read, 0 seeks
cur_dts is invalid st:0 (0) [init:1 i_done:0 finish:0] (this is harmless if it occurs once at the start per stream)
[image2 @ 000001f0a2e9ec40] Opening 'D:/ART/PersonalProjects/Video/animation/Guppy Bowl/Final/frame0049.png' for reading
[file @ 000001f0a487bb80] Setting default whitelist 'file,crypto,data'
[AVIOContext @ 000001f0a48d7840] Statistics: 590052 bytes read, 0 seeks
cur_dts is invalid st:0 (0) [init:1 i_done:0 finish:0] (this is harmless if it occurs once at the start per stream)
[image2 @ 000001f0a2e9ec40] Opening 'D:/ART/PersonalProjects/Video/animation/Guppy Bowl/Final/frame0050.png' for reading
[file @ 000001f0a487bf80] Setting default whitelist 'file,crypto,data'
[AVIOContext @ 000001f0a48d75c0] Statistics: 584468 bytes read, 0 seeks
cur_dts is invalid st:0 (0) [init:1 i_done:0 finish:0] (this is harmless if it occurs once at the start per stream)
[image2 @ 000001f0a2e9ec40] Opening 'D:/ART/PersonalProjects/Video/animation/Guppy Bowl/Final/frame0051.png' for reading
[file @ 000001f0a487bf80] Setting default whitelist 'file,crypto,data'
[AVIOContext @ 000001f0a48d7840] Statistics: 589956 bytes read, 0 seeks
cur_dts is invalid st:0 (0) [init:1 i_done:0 finish:0] (this is harmless if it occurs once at the start per stream)
[image2 @ 000001f0a2e9ec40] Opening 'D:/ART/PersonalProjects/Video/animation/Guppy Bowl/Final/frame0052.png' for reading
[file @ 000001f0a487b580] Setting default whitelist 'file,crypto,data'
[AVIOContext @ 000001f0a48d7980] Statistics: 592423 bytes read, 0 seeks
cur_dts is invalid st:0 (0) [init:1 i_done:0 finish:0] (this is harmless if it occurs once at the start per stream)
[image2 @ 000001f0a2e9ec40] Opening 'D:/ART/PersonalProjects/Video/animation/Guppy Bowl/Final/frame0053.png' for reading
[file @ 000001f0a487b380] Setting default whitelist 'file,crypto,data'
[AVIOContext @ 000001f0a48d75c0] Statistics: 592423 bytes read, 0 seeks
cur_dts is invalid st:0 (0) [init:1 i_done:0 finish:0] (this is harmless if it occurs once at the start per stream)
[image2 @ 000001f0a2e9ec40] Opening 'D:/ART/PersonalProjects/Video/animation/Guppy Bowl/Final/frame0054.png' for reading
[file @ 000001f0a487c080] Setting default whitelist 'file,crypto,data'
[AVIOContext @ 000001f0a48d75c0] Statistics: 587269 bytes read, 0 seeks
cur_dts is invalid st:0 (0) [init:1 i_done:0 finish:0] (this is harmless if it occurs once at the start per stream)
[image2 @ 000001f0a2e9ec40] Opening 'D:/ART/PersonalProjects/Video/animation/Guppy Bowl/Final/frame0055.png' for reading
[file @ 000001f0a487aa80] Setting default whitelist 'file,crypto,data'
[AVIOContext @ 000001f0a48d7c40] Statistics: 587269 bytes read, 0 seeks
frame=   44 fps= 42 q=0.0 size=       0kB time=00:00:00.00 bitrate=N/A speed=   0x    cur_dts is invalid st:0 (0) [init:1 i_done:0 finish:0] (this is harmless if it occurs once at the start per stream)
[image2 @ 000001f0a2e9ec40] Opening 'D:/ART/PersonalProjects/Video/animation/Guppy Bowl/Final/frame0056.png' for reading
[file @ 000001f0a487b580] Setting default whitelist 'file,crypto,data'
[AVIOContext @ 000001f0a48d7080] Statistics: 590455 bytes read, 0 seeks
cur_dts is invalid st:0 (0) [init:1 i_done:0 finish:0] (this is harmless if it occurs once at the start per stream)
[image2 @ 000001f0a2e9ec40] Opening 'D:/ART/PersonalProjects/Video/animation/Guppy Bowl/Final/frame0057.png' for reading
[file @ 000001f0a487b780] Setting default whitelist 'file,crypto,data'
[AVIOContext @ 000001f0a48d75c0] Statistics: 593044 bytes read, 0 seeks
cur_dts is invalid st:0 (0) [init:1 i_done:0 finish:0] (this is harmless if it occurs once at the start per stream)
[image2 @ 000001f0a2e9ec40] Opening 'D:/ART/PersonalProjects/Video/animation/Guppy Bowl/Final/frame0058.png' for reading
[file @ 000001f0a487a780] Setting default whitelist 'file,crypto,data'
[AVIOContext @ 000001f0a48d71c0] Statistics: 591735 bytes read, 0 seeks
cur_dts is invalid st:0 (0) [init:1 i_done:0 finish:0] (this is harmless if it occurs once at the start per stream)
[image2 @ 000001f0a2e9ec40] Opening 'D:/ART/PersonalProjects/Video/animation/Guppy Bowl/Final/frame0059.png' for reading
[file @ 000001f0a487af80] Setting default whitelist 'file,crypto,data'
[AVIOContext @ 000001f0a48d75c0] Statistics: 591735 bytes read, 0 seeks
cur_dts is invalid st:0 (0) [init:1 i_done:0 finish:0] (this is harmless if it occurs once at the start per stream)
[image2 @ 000001f0a2e9ec40] Opening 'D:/ART/PersonalProjects/Video/animation/Guppy Bowl/Final/frame0060.png' for reading
[file @ 000001f0a487aa80] Setting default whitelist 'file,crypto,data'
[AVIOContext @ 000001f0a48d75c0] Statistics: 599302 bytes read, 0 seeks
cur_dts is invalid st:0 (0) [init:1 i_done:0 finish:0] (this is harmless if it occurs once at the start per stream)
[image2 @ 000001f0a2e9ec40] Opening 'D:/ART/PersonalProjects/Video/animation/Guppy Bowl/Final/frame0061.png' for reading
[file @ 000001f0a487a480] Setting default whitelist 'file,crypto,data'
[AVIOContext @ 000001f0a48d7980] Statistics: 599302 bytes read, 0 seeks
cur_dts is invalid st:0 (0) [init:1 i_done:0 finish:0] (this is harmless if it occurs once at the start per stream)
[image2 @ 000001f0a2e9ec40] Opening 'D:/ART/PersonalProjects/Video/animation/Guppy Bowl/Final/frame0062.png' for reading
[file @ 000001f0a487bf80] Setting default whitelist 'file,crypto,data'
[AVIOContext @ 000001f0a48d75c0] Statistics: 612515 bytes read, 0 seeks
cur_dts is invalid st:0 (0) [init:1 i_done:0 finish:0] (this is harmless if it occurs once at the start per stream)
[image2 @ 000001f0a2e9ec40] Opening 'D:/ART/PersonalProjects/Video/animation/Guppy Bowl/Final/frame0063.png' for reading
[file @ 000001f0a487bb80] Setting default whitelist 'file,crypto,data'
[AVIOContext @ 000001f0a48d75c0] Statistics: 615061 bytes read, 0 seeks
cur_dts is invalid st:0 (0) [init:1 i_done:0 finish:0] (this is harmless if it occurs once at the start per stream)
[image2 @ 000001f0a2e9ec40] Opening 'D:/ART/PersonalProjects/Video/animation/Guppy Bowl/Final/frame0064.png' for reading
[file @ 000001f0a487b180] Setting default whitelist 'file,crypto,data'
[AVIOContext @ 000001f0a48d7b00] Statistics: 623006 bytes read, 0 seeks
cur_dts is invalid st:0 (0) [init:1 i_done:0 finish:0] (this is harmless if it occurs once at the start per stream)
[image2 @ 000001f0a2e9ec40] Opening 'D:/ART/PersonalProjects/Video/animation/Guppy Bowl/Final/frame0065.png' for reading
[file @ 000001f0a487b380] Setting default whitelist 'file,crypto,data'
[AVIOContext @ 000001f0a48d7080] Statistics: 623006 bytes read, 0 seeks
cur_dts is invalid st:0 (0) [init:1 i_done:0 finish:0] (this is harmless if it occurs once at the start per stream)
[image2 @ 000001f0a2e9ec40] Opening 'D:/ART/PersonalProjects/Video/animation/Guppy Bowl/Final/frame0066.png' for reading
[file @ 000001f0a487b980] Setting default whitelist 'file,crypto,data'
[AVIOContext @ 000001f0a48d75c0] Statistics: 629602 bytes read, 0 seeks
cur_dts is invalid st:0 (0) [init:1 i_done:0 finish:0] (this is harmless if it occurs once at the start per stream)
[image2 @ 000001f0a2e9ec40] Opening 'D:/ART/PersonalProjects/Video/animation/Guppy Bowl/Final/frame0067.png' for reading
[file @ 000001f0a487af80] Setting default whitelist 'file,crypto,data'
[AVIOContext @ 000001f0a48d7980] Statistics: 629602 bytes read, 0 seeks
cur_dts is invalid st:0 (0) [init:1 i_done:0 finish:0] (this is harmless if it occurs once at the start per stream)
[image2 @ 000001f0a2e9ec40] Opening 'D:/ART/PersonalProjects/Video/animation/Guppy Bowl/Final/frame0068.png' for reading
[file @ 000001f0a487aa80] Setting default whitelist 'file,crypto,data'
[AVIOContext @ 000001f0a48d71c0] Statistics: 628262 bytes read, 0 seeks
cur_dts is invalid st:0 (0) [init:1 i_done:0 finish:0] (this is harmless if it occurs once at the start per stream)
[image2 @ 000001f0a2e9ec40] Opening 'D:/ART/PersonalProjects/Video/animation/Guppy Bowl/Final/frame0069.png' for reading
[file @ 000001f0a487a880] Setting default whitelist 'file,crypto,data'
[AVIOContext @ 000001f0a48d7d80] Statistics: 624643 bytes read, 0 seeks
cur_dts is invalid st:0 (0) [init:1 i_done:0 finish:0] (this is harmless if it occurs once at the start per stream)
[image2 @ 000001f0a2e9ec40] Opening 'D:/ART/PersonalProjects/Video/animation/Guppy Bowl/Final/frame0070.png' for reading
[file @ 000001f0a487bb80] Setting default whitelist 'file,crypto,data'
[AVIOContext @ 000001f0a48d75c0] Statistics: 633445 bytes read, 0 seeks
cur_dts is invalid st:0 (0) [init:1 i_done:0 finish:0] (this is harmless if it occurs once at the start per stream)
[image2 @ 000001f0a2e9ec40] Opening 'D:/ART/PersonalProjects/Video/animation/Guppy Bowl/Final/frame0071.png' for reading
[file @ 000001f0a487a380] Setting default whitelist 'file,crypto,data'
[AVIOContext @ 000001f0a48d7980] Statistics: 633445 bytes read, 0 seeks
[libx264 @ 000001f0a341e180] frame=   0 QP=12.94 NAL=3 Slice:I Poc:0   I:16900 P:0    SKIP:0    size=108020 bytes
[image2 @ 000001f0a2e9ec40] Opening 'D:/ART/PersonalProjects/Video/animation/Guppy Bowl/Final/frame0072.png' for reading
[file @ 000001f0a487ae80] Setting default whitelist 'file,crypto,data'
[AVIOContext @ 000001f0a48d7b00] Statistics: 627073 bytes read, 0 seeks
[libx264 @ 000001f0a341e180] frame=   1 QP=17.92 NAL=2 Slice:P Poc:2   I:31   P:421  SKIP:16448 size=1162 bytes
[image2 @ 000001f0a2e9ec40] Opening 'D:/ART/PersonalProjects/Video/animation/Guppy Bowl/Final/frame0073.png' for reading
[file @ 000001f0a487bf80] Setting default whitelist 'file,crypto,data'
[AVIOContext @ 000001f0a48d7700] Statistics: 627073 bytes read, 0 seeks
[libx264 @ 000001f0a341e180] frame=   2 QP=18.77 NAL=2 Slice:P Poc:4   I:344  P:743  SKIP:15813 size=11927 bytes
[image2 @ 000001f0a2e9ec40] Opening 'D:/ART/PersonalProjects/Video/animation/Guppy Bowl/Final/frame0074.png' for reading
[file @ 000001f0a487a480] Setting default whitelist 'file,crypto,data'
[AVIOContext @ 000001f0a48d75c0] Statistics: 623502 bytes read, 0 seeks
[libx264 @ 000001f0a341e180] frame=   3 QP=17.88 NAL=2 Slice:P Poc:6   I:243  P:272  SKIP:16385 size=4507 bytes
[image2 @ 000001f0a2e9ec40] Opening 'D:/ART/PersonalProjects/Video/animation/Guppy Bowl/Final/frame0075.png' for reading
[file @ 000001f0a487a380] Setting default whitelist 'file,crypto,data'
[AVIOContext @ 000001f0a48d7b00] Statistics: 615466 bytes read, 0 seeks
[libx264 @ 000001f0a341e180] frame=   4 QP=19.24 NAL=2 Slice:P Poc:8   I:344  P:751  SKIP:15805 size=11192 bytes
[image2 @ 000001f0a2e9ec40] Opening 'D:/ART/PersonalProjects/Video/animation/Guppy Bowl/Final/frame0076.png' for reading
[file @ 000001f0a487b580] Setting default whitelist 'file,crypto,data'
[AVIOContext @ 000001f0a48d71c0] Statistics: 605195 bytes read, 0 seeks
[libx264 @ 000001f0a341e180] frame=   5 QP=17.00 NAL=2 Slice:P Poc:10  I:26   P:101  SKIP:16773 size=400 bytes
frame=   65 fps= 41 q=28.0 size=       0kB time=00:00:00.20 bitrate=   1.8kbits/s speed=0.133x    [image2 @ 000001f0a2e9ec40] Opening 'D:/ART/PersonalProjects/Video/animation/Guppy Bowl/Final/frame0077.png' for reading
[file @ 000001f0a487bf80] Setting default whitelist 'file,crypto,data'
[AVIOContext @ 000001f0a48d75c0] Statistics: 605195 bytes read, 0 seeks
[libx264 @ 000001f0a341e180] frame=   6 QP=18.71 NAL=2 Slice:P Poc:12  I:477  P:788  SKIP:15635 size=13906 bytes
[image2 @ 000001f0a2e9ec40] Opening 'D:/ART/PersonalProjects/Video/animation/Guppy Bowl/Final/frame0078.png' for reading
[file @ 000001f0a487a380] Setting default whitelist 'file,crypto,data'
[AVIOContext @ 000001f0a48d75c0] Statistics: 611028 bytes read, 0 seeks
[libx264 @ 000001f0a341e180] frame=   7 QP=16.00 NAL=2 Slice:P Poc:14  I:24   P:135  SKIP:16741 size=475 bytes
[image2 @ 000001f0a2e9ec40] Opening 'D:/ART/PersonalProjects/Video/animation/Guppy Bowl/Final/frame0079.png' for reading
[file @ 000001f0a487a280] Setting default whitelist 'file,crypto,data'
[AVIOContext @ 000001f0a48d7d80] Statistics: 611028 bytes read, 0 seeks
[libx264 @ 000001f0a341e180] frame=   8 QP=19.47 NAL=2 Slice:P Poc:16  I:274  P:749  SKIP:15877 size=10691 bytes
[image2 @ 000001f0a2e9ec40] Opening 'D:/ART/PersonalProjects/Video/animation/Guppy Bowl/Final/frame0080.png' for reading
[file @ 000001f0a487ad80] Setting default whitelist 'file,crypto,data'
[AVIOContext @ 000001f0a48d7d80] Statistics: 609091 bytes read, 0 seeks
[libx264 @ 000001f0a341e180] frame=   9 QP=18.48 NAL=2 Slice:P Poc:18  I:219  P:297  SKIP:16384 size=4134 bytes
[image2 @ 000001f0a2e9ec40] Opening 'D:/ART/PersonalProjects/Video/animation/Guppy Bowl/Final/frame0081.png' for reading
[file @ 000001f0a487b580] Setting default whitelist 'file,crypto,data'
[AVIOContext @ 000001f0a48d71c0] Statistics: 609702 bytes read, 0 seeks
[libx264 @ 000001f0a341e180] frame=  10 QP=18.51 NAL=2 Slice:P Poc:20  I:354  P:755  SKIP:15791 size=11670 bytes
[image2 @ 000001f0a2e9ec40] Opening 'D:/ART/PersonalProjects/Video/animation/Guppy Bowl/Final/frame0082.png' for reading
[file @ 000001f0a487bf80] Setting default whitelist 'file,crypto,data'
[AVIOContext @ 000001f0a48d75c0] Statistics: 606058 bytes read, 0 seeks
[libx264 @ 000001f0a341e180] frame=  11 QP=15.36 NAL=2 Slice:P Poc:22  I:18   P:77   SKIP:16805 size=316 bytes
[image2 @ 000001f0a2e9ec40] Opening 'D:/ART/PersonalProjects/Video/animation/Guppy Bowl/Final/frame0083.png' for reading
[file @ 000001f0a487ad80] Setting default whitelist 'file,crypto,data'
[AVIOContext @ 000001f0a48d7080] Statistics: 606058 bytes read, 0 seeks
[libx264 @ 000001f0a341e180] frame=  12 QP=19.02 NAL=2 Slice:P Poc:24  I:519  P:828  SKIP:15553 size=14674 bytes
[image2 @ 000001f0a2e9ec40] Opening 'D:/ART/PersonalProjects/Video/animation/Guppy Bowl/Final/frame0084.png' for reading
[file @ 000001f0a487b180] Setting default whitelist 'file,crypto,data'
[AVIOContext @ 000001f0a48d7080] Statistics: 604644 bytes read, 0 seeks
[libx264 @ 000001f0a341e180] frame=  13 QP=17.53 NAL=2 Slice:P Poc:26  I:25   P:156  SKIP:16719 size=553 bytes
[image2 @ 000001f0a2e9ec40] Opening 'D:/ART/PersonalProjects/Video/animation/Guppy Bowl/Final/frame0085.png' for reading
[file @ 000001f0a487ba80] Setting default whitelist 'file,crypto,data'
[AVIOContext @ 000001f0a48d75c0] Statistics: 604644 bytes read, 0 seeks
[libx264 @ 000001f0a341e180] frame=  14 QP=18.15 NAL=2 Slice:P Poc:28  I:340  P:712  SKIP:15848 size=11578 bytes
[image2 @ 000001f0a2e9ec40] Opening 'D:/ART/PersonalProjects/Video/animation/Guppy Bowl/Final/frame0086.png' for reading
[file @ 000001f0a487b880] Setting default whitelist 'file,crypto,data'
[AVIOContext @ 000001f0a48d7080] Statistics: 604157 bytes read, 0 seeks
[libx264 @ 000001f0a341e180] frame=  15 QP=17.46 NAL=2 Slice:P Poc:30  I:243  P:288  SKIP:16369 size=4292 bytes
[image2 @ 000001f0a2e9ec40] Opening 'D:/ART/PersonalProjects/Video/animation/Guppy Bowl/Final/frame0087.png' for reading
[file @ 000001f0a487ad80] Setting default whitelist 'file,crypto,data'
[AVIOContext @ 000001f0a48d7080] Statistics: 610275 bytes read, 0 seeks
[libx264 @ 000001f0a341e180] frame=  16 QP=19.21 NAL=2 Slice:P Poc:32  I:400  P:866  SKIP:15634 size=13779 bytes
[image2 @ 000001f0a2e9ec40] Opening 'D:/ART/PersonalProjects/Video/animation/Guppy Bowl/Final/frame0088.png' for reading
[file @ 000001f0a487a880] Setting default whitelist 'file,crypto,data'
[AVIOContext @ 000001f0a48d7d80] Statistics: 611851 bytes read, 0 seeks
[libx264 @ 000001f0a341e180] frame=  17 QP=15.40 NAL=2 Slice:P Poc:34  I:17   P:96   SKIP:16787 size=332 bytes
[image2 @ 000001f0a2e9ec40] Opening 'D:/ART/PersonalProjects/Video/animation/Guppy Bowl/Final/frame0089.png' for reading
[file @ 000001f0a487ba80] Setting default whitelist 'file,crypto,data'
[AVIOContext @ 000001f0a48d7c40] Statistics: 611851 bytes read, 0 seeks
[libx264 @ 000001f0a341e180] frame=  18 QP=18.11 NAL=2 Slice:P Poc:36  I:712  P:739  SKIP:15449 size=15486 bytes
[image2 @ 000001f0a2e9ec40] Opening 'D:/ART/PersonalProjects/Video/animation/Guppy Bowl/Final/frame0090.png' for reading
[file @ 000001f0a487bf80] Setting default whitelist 'file,crypto,data'
[AVIOContext @ 000001f0a48d75c0] Statistics: 616867 bytes read, 0 seeks
[libx264 @ 000001f0a341e180] frame=  19 QP=16.75 NAL=2 Slice:P Poc:38  I:17   P:175  SKIP:16708 size=541 bytes
[image2 @ 000001f0a2e9ec40] Opening 'D:/ART/PersonalProjects/Video/animation/Guppy Bowl/Final/frame0091.png' for reading
[file @ 000001f0a487ad80] Setting default whitelist 'file,crypto,data'
[AVIOContext @ 000001f0a48d7700] Statistics: 616867 bytes read, 0 seeks
[libx264 @ 000001f0a341e180] frame=  20 QP=18.15 NAL=2 Slice:P Poc:40  I:369  P:782  SKIP:15749 size=12388 bytes
[image2 @ 000001f0a2e9ec40] Opening 'D:/ART/PersonalProjects/Video/animation/Guppy Bowl/Final/frame0092.png' for reading
[file @ 000001f0a487bf80] Setting default whitelist 'file,crypto,data'
[AVIOContext @ 000001f0a48d75c0] Statistics: 614835 bytes read, 0 seeks
[libx264 @ 000001f0a341e180] frame=  21 QP=18.42 NAL=2 Slice:P Poc:42  I:216  P:319  SKIP:16365 size=3480 bytes
[image2 @ 000001f0a2e9ec40] Opening 'D:/ART/PersonalProjects/Video/animation/Guppy Bowl/Final/frame0093.png' for reading
[file @ 000001f0a487ad80] Setting default whitelist 'file,crypto,data'
[AVIOContext @ 000001f0a48d75c0] Statistics: 614338 bytes read, 0 seeks
[libx264 @ 000001f0a341e180] frame=  22 QP=18.40 NAL=2 Slice:P Poc:44  I:319  P:789  SKIP:15792 size=12666 bytes
[image2 @ 000001f0a2e9ec40] Opening 'D:/ART/PersonalProjects/Video/animation/Guppy Bowl/Final/frame0094.png' for reading
[file @ 000001f0a487a680] Setting default whitelist 'file,crypto,data'
[AVIOContext @ 000001f0a48d7b00] Statistics: 612566 bytes read, 0 seeks
[libx264 @ 000001f0a341e180] frame=  23 QP=17.72 NAL=2 Slice:P Poc:46  I:18   P:107  SKIP:16775 size=399 bytes
[image2 @ 000001f0a2e9ec40] Opening 'D:/ART/PersonalProjects/Video/animation/Guppy Bowl/Final/frame0095.png' for reading
[file @ 000001f0a487ae80] Setting default whitelist 'file,crypto,data'
[AVIOContext @ 000001f0a48d71c0] Statistics: 612566 bytes read, 0 seeks
[libx264 @ 000001f0a341e180] frame=  24 QP=19.12 NAL=2 Slice:P Poc:48  I:472  P:798  SKIP:15630 size=13951 bytes
[image2 @ 000001f0a2e9ec40] Opening 'D:/ART/PersonalProjects/Video/animation/Guppy Bowl/Final/frame0096.png' for reading
[file @ 000001f0a487aa80] Setting default whitelist 'file,crypto,data'
[AVIOContext @ 000001f0a48d7c40] Statistics: 610418 bytes read, 0 seeks
[libx264 @ 000001f0a341e180] frame=  25 QP=17.05 NAL=2 Slice:P Poc:50  I:25   P:148  SKIP:16727 size=522 bytes
[image2 @ 000001f0a2e9ec40] Opening 'D:/ART/PersonalProjects/Video/animation/Guppy Bowl/Final/frame0097.png' for reading
[file @ 000001f0a487b180] Setting default whitelist 'file,crypto,data'
[AVIOContext @ 000001f0a48d71c0] Statistics: 610418 bytes read, 0 seeks
[libx264 @ 000001f0a341e180] frame=  26 QP=17.45 NAL=2 Slice:P Poc:52  I:323  P:742  SKIP:15835 size=10606 bytes
[image2 @ 000001f0a2e9ec40] Opening 'D:/ART/PersonalProjects/Video/animation/Guppy Bowl/Final/frame0098.png' for reading
[file @ 000001f0a487b780] Setting default whitelist 'file,crypto,data'
[AVIOContext @ 000001f0a48d71c0] Statistics: 611126 bytes read, 0 seeks
[libx264 @ 000001f0a341e180] frame=  27 QP=19.36 NAL=2 Slice:P Poc:54  I:192  P:366  SKIP:16342 size=3894 bytes
[image2 @ 000001f0a2e9ec40] Opening 'D:/ART/PersonalProjects/Video/animation/Guppy Bowl/Final/frame0099.png' for reading
[file @ 000001f0a487bf80] Setting default whitelist 'file,crypto,data'
[AVIOContext @ 000001f0a48d7840] Statistics: 608564 bytes read, 0 seeks
[libx264 @ 000001f0a341e180] frame=  28 QP=18.36 NAL=2 Slice:P Poc:56  I:325  P:738  SKIP:15837 size=12207 bytes
frame=   88 fps= 42 q=28.0 size=     256kB time=00:00:01.16 bitrate=1797.8kbits/s speed=0.562x    [image2 @ 000001f0a2e9ec40] Opening 'D:/ART/PersonalProjects/Video/animation/Guppy Bowl/Final/frame0100.png' for reading
[file @ 000001f0a487bb80] Setting default whitelist 'file,crypto,data'
[AVIOContext @ 000001f0a48d7080] Statistics: 614452 bytes read, 0 seeks
[libx264 @ 000001f0a341e180] frame=  29 QP=15.78 NAL=2 Slice:P Poc:58  I:18   P:93   SKIP:16789 size=358 bytes
[image2 @ 000001f0a2e9ec40] Opening 'D:/ART/PersonalProjects/Video/animation/Guppy Bowl/Final/frame0101.png' for reading
[file @ 000001f0a487bb80] Setting default whitelist 'file,crypto,data'
[AVIOContext @ 000001f0a48d7b00] Statistics: 614452 bytes read, 0 seeks
[libx264 @ 000001f0a341e180] frame=  30 QP=19.21 NAL=2 Slice:P Poc:60  I:457  P:801  SKIP:15642 size=13597 bytes
[image2 @ 000001f0a2e9ec40] Opening 'D:/ART/PersonalProjects/Video/animation/Guppy Bowl/Final/frame0102.png' for reading
[file @ 000001f0a487b680] Setting default whitelist 'file,crypto,data'
[AVIOContext @ 000001f0a48d7840] Statistics: 610952 bytes read, 0 seeks
[libx264 @ 000001f0a341e180] frame=  31 QP=15.77 NAL=2 Slice:P Poc:62  I:31   P:122  SKIP:16747 size=467 bytes
[image2 @ 000001f0a2e9ec40] Opening 'D:/ART/PersonalProjects/Video/animation/Guppy Bowl/Final/frame0103.png' for reading
[file @ 000001f0a487b780] Setting default whitelist 'file,crypto,data'
[AVIOContext @ 000001f0a48d7700] Statistics: 610952 bytes read, 0 seeks
[libx264 @ 000001f0a341e180] frame=  32 QP=19.84 NAL=2 Slice:P Poc:64  I:281  P:697  SKIP:15922 size=11227 bytes
[image2 @ 000001f0a2e9ec40] Opening 'D:/ART/PersonalProjects/Video/animation/Guppy Bowl/Final/frame0104.png' for reading
[file @ 000001f0a487bb80] Setting default whitelist 'file,crypto,data'
[AVIOContext @ 000001f0a48d7b00] Statistics: 612570 bytes read, 0 seeks
[libx264 @ 000001f0a341e180] frame=  33 QP=18.12 NAL=2 Slice:P Poc:66  I:254  P:274  SKIP:16372 size=3958 bytes
[image2 @ 000001f0a2e9ec40] Opening 'D:/ART/PersonalProjects/Video/animation/Guppy Bowl/Final/frame0105.png' for reading
[file @ 000001f0a487b680] Setting default whitelist 'file,crypto,data'
[AVIOContext @ 000001f0a48d7840] Statistics: 619425 bytes read, 0 seeks
[libx264 @ 000001f0a341e180] frame=  34 QP=18.53 NAL=2 Slice:P Poc:68  I:309  P:740  SKIP:15851 size=11571 bytes
[image2 @ 000001f0a2e9ec40] Opening 'D:/ART/PersonalProjects/Video/animation/Guppy Bowl/Final/frame0106.png' for reading
[file @ 000001f0a487a380] Setting default whitelist 'file,crypto,data'
[AVIOContext @ 000001f0a48d7d80] Statistics: 614984 bytes read, 0 seeks
[libx264 @ 000001f0a341e180] frame=  35 QP=18.35 NAL=2 Slice:P Poc:70  I:23   P:107  SKIP:16770 size=411 bytes
[image2 @ 000001f0a2e9ec40] Opening 'D:/ART/PersonalProjects/Video/animation/Guppy Bowl/Final/frame0107.png' for reading
[file @ 000001f0a487b780] Setting default whitelist 'file,crypto,data'
[AVIOContext @ 000001f0a48d7080] Statistics: 614984 bytes read, 0 seeks
[libx264 @ 000001f0a341e180] frame=  36 QP=19.36 NAL=2 Slice:P Poc:72  I:462  P:744  SKIP:15694 size=13302 bytes
[image2 @ 000001f0a2e9ec40] Opening 'D:/ART/PersonalProjects/Video/animation/Guppy Bowl/Final/frame0108.png' for reading
[file @ 000001f0a487aa80] Setting default whitelist 'file,crypto,data'
[AVIOContext @ 000001f0a48d7080] Statistics: 609792 bytes read, 0 seeks
[libx264 @ 000001f0a341e180] frame=  37 QP=17.66 NAL=2 Slice:P Poc:74  I:17   P:119  SKIP:16764 size=419 bytes
[image2 @ 000001f0a2e9ec40] Opening 'D:/ART/PersonalProjects/Video/animation/Guppy Bowl/Final/frame0109.png' for reading
[file @ 000001f0a487b580] Setting default whitelist 'file,crypto,data'
[AVIOContext @ 000001f0a48d7c40] Statistics: 609792 bytes read, 0 seeks
[libx264 @ 000001f0a341e180] frame=  38 QP=19.80 NAL=2 Slice:P Poc:76  I:300  P:664  SKIP:15936 size=11263 bytes
[image2 @ 000001f0a2e9ec40] Opening 'D:/ART/PersonalProjects/Video/animation/Guppy Bowl/Final/frame0110.png' for reading
[file @ 000001f0a487b780] Setting default whitelist 'file,crypto,data'
[AVIOContext @ 000001f0a48d7080] Statistics: 612187 bytes read, 0 seeks
[libx264 @ 000001f0a341e180] frame=  39 QP=16.94 NAL=2 Slice:P Poc:78  I:307  P:263  SKIP:16330 size=4603 bytes
[image2 @ 000001f0a2e9ec40] Opening 'D:/ART/PersonalProjects/Video/animation/Guppy Bowl/Final/frame0111.png' for reading
[file @ 000001f0a487a880] Setting default whitelist 'file,crypto,data'
[AVIOContext @ 000001f0a48d7b00] Statistics: 607578 bytes read, 0 seeks
[libx264 @ 000001f0a341e180] frame=  40 QP=20.21 NAL=2 Slice:P Poc:80  I:271  P:769  SKIP:15860 size=11207 bytes
[image2 @ 000001f0a2e9ec40] Opening 'D:/ART/PersonalProjects/Video/animation/Guppy Bowl/Final/frame0112.png' for reading
[file @ 000001f0a487bf80] Setting default whitelist 'file,crypto,data'
[AVIOContext @ 000001f0a48d75c0] Statistics: 608577 bytes read, 0 seeks
[libx264 @ 000001f0a341e180] frame=  41 QP=15.37 NAL=2 Slice:P Poc:82  I:12   P:88   SKIP:16800 size=342 bytes
[image2 @ 000001f0a2e9ec40] Opening 'D:/ART/PersonalProjects/Video/animation/Guppy Bowl/Final/frame0113.png' for reading
[file @ 000001f0a487ad80] Setting default whitelist 'file,crypto,data'
[AVIOContext @ 000001f0a48d75c0] Statistics: 608577 bytes read, 0 seeks
[libx264 @ 000001f0a341e180] frame=  42 QP=18.98 NAL=2 Slice:P Poc:84  I:442  P:682  SKIP:15776 size=14381 bytes
[image2 @ 000001f0a2e9ec40] Opening 'D:/ART/PersonalProjects/Video/animation/Guppy Bowl/Final/frame0114.png' for reading
[file @ 000001f0a487ba80] Setting default whitelist 'file,crypto,data'
[AVIOContext @ 000001f0a48d7080] Statistics: 603583 bytes read, 0 seeks
[libx264 @ 000001f0a341e180] frame=  43 QP=16.76 NAL=2 Slice:P Poc:86  I:28   P:110  SKIP:16762 size=440 bytes
[image2 @ 000001f0a2e9ec40] Opening 'D:/ART/PersonalProjects/Video/animation/Guppy Bowl/Final/frame0115.png' for reading
[file @ 000001f0a487c080] Setting default whitelist 'file,crypto,data'
[AVIOContext @ 000001f0a48d7700] Statistics: 603583 bytes read, 0 seeks
[libx264 @ 000001f0a341e180] frame=  44 QP=19.22 NAL=2 Slice:P Poc:88  I:299  P:751  SKIP:15850 size=12481 bytes
[image2 @ 000001f0a2e9ec40] Opening 'D:/ART/PersonalProjects/Video/animation/Guppy Bowl/Final/frame0116.png' for reading
[file @ 000001f0a487a480] Setting default whitelist 'file,crypto,data'
[AVIOContext @ 000001f0a48d7840] Statistics: 615438 bytes read, 0 seeks
[libx264 @ 000001f0a341e180] frame=  45 QP=18.66 NAL=2 Slice:P Poc:90  I:192  P:287  SKIP:16421 size=3556 bytes
[image2 @ 000001f0a2e9ec40] Opening 'D:/ART/PersonalProjects/Video/animation/Guppy Bowl/Final/frame0117.png' for reading
[file @ 000001f0a487a480] Setting default whitelist 'file,crypto,data'
[AVIOContext @ 000001f0a48d7c40] Statistics: 622130 bytes read, 0 seeks
[libx264 @ 000001f0a341e180] frame=  46 QP=18.74 NAL=2 Slice:P Poc:92  I:273  P:701  SKIP:15926 size=10969 bytes
[image2 @ 000001f0a2e9ec40] Opening 'D:/ART/PersonalProjects/Video/animation/Guppy Bowl/Final/frame0118.png' for reading
[file @ 000001f0a487b780] Setting default whitelist 'file,crypto,data'
[AVIOContext @ 000001f0a48d75c0] Statistics: 632939 bytes read, 0 seeks
[libx264 @ 000001f0a341e180] frame=  47 QP=18.42 NAL=2 Slice:P Poc:94  I:15   P:88   SKIP:16797 size=363 bytes
[image2 @ 000001f0a2e9ec40] Opening 'D:/ART/PersonalProjects/Video/animation/Guppy Bowl/Final/frame0119.png' for reading
[file @ 000001f0a487ad80] Setting default whitelist 'file,crypto,data'
[AVIOContext @ 000001f0a48d75c0] Statistics: 632939 bytes read, 0 seeks
[libx264 @ 000001f0a341e180] frame=  48 QP=18.46 NAL=2 Slice:P Poc:96  I:417  P:820  SKIP:15663 size=13266 bytes
[image2 @ 000001f0a2e9ec40] Opening 'D:/ART/PersonalProjects/Video/animation/Guppy Bowl/Final/frame0120.png' for reading
[file @ 000001f0a487ba80] Setting default whitelist 'file,crypto,data'
[AVIOContext @ 000001f0a48d75c0] Statistics: 631124 bytes read, 0 seeks
[libx264 @ 000001f0a341e180] frame=  49 QP=17.59 NAL=2 Slice:P Poc:98  I:11   P:117  SKIP:16772 size=394 bytes
[image2 @ 000001f0a2e9ec40] Opening 'D:/ART/PersonalProjects/Video/animation/Guppy Bowl/Final/frame0121.png' for reading
[file @ 000001f0a487b180] Setting default whitelist 'file,crypto,data'
[AVIOContext @ 000001f0a48d71c0] Statistics: 631124 bytes read, 0 seeks
[libx264 @ 000001f0a341e180] frame=  50 QP=17.80 NAL=2 Slice:P Poc:100 I:299  P:724  SKIP:15877 size=11562 bytes
[image2 @ 000001f0a2e9ec40] Opening 'D:/ART/PersonalProjects/Video/animation/Guppy Bowl/Final/frame0122.png' for reading
[file @ 000001f0a487b180] Setting default whitelist 'file,crypto,data'
[AVIOContext @ 000001f0a48d71c0] Statistics: 627011 bytes read, 0 seeks
[libx264 @ 000001f0a341e180] frame=  51 QP=20.19 NAL=2 Slice:P Poc:102 I:146  P:254  SKIP:16500 size=3202 bytes
frame=  111 fps= 43 q=28.0 size=     256kB time=00:00:02.12 bitrate= 987.0kbits/s speed=0.821x    [image2 @ 000001f0a2e9ec40] Opening 'D:/ART/PersonalProjects/Video/animation/Guppy Bowl/Final/frame0123.png' for reading
[file @ 000001f0a487bf80] Setting default whitelist 'file,crypto,data'
[AVIOContext @ 000001f0a48d75c0] Statistics: 623177 bytes read, 0 seeks
[libx264 @ 000001f0a341e180] frame=  52 QP=18.98 NAL=2 Slice:P Poc:104 I:304  P:662  SKIP:15934 size=10504 bytes
[image2 @ 000001f0a2e9ec40] Opening 'D:/ART/PersonalProjects/Video/animation/Guppy Bowl/Final/frame0124.png' for reading
[file @ 000001f0a487b380] Setting default whitelist 'file,crypto,data'
[AVIOContext @ 000001f0a48d75c0] Statistics: 617760 bytes read, 0 seeks
[libx264 @ 000001f0a341e180] frame=  53 QP=20.37 NAL=2 Slice:P Poc:106 I:16   P:91   SKIP:16793 size=350 bytes
[image2 @ 000001f0a2e9ec40] Opening 'D:/ART/PersonalProjects/Video/animation/Guppy Bowl/Final/frame0125.png' for reading
[file @ 000001f0a487c080] Setting default whitelist 'file,crypto,data'
[AVIOContext @ 000001f0a48d75c0] Statistics: 617760 bytes read, 0 seeks
[libx264 @ 000001f0a341e180] frame=  54 QP=19.17 NAL=2 Slice:P Poc:108 I:324  P:649  SKIP:15927 size=10263 bytes
[image2 @ 000001f0a2e9ec40] Opening 'D:/ART/PersonalProjects/Video/animation/Guppy Bowl/Final/frame0126.png' for reading
[file @ 000001f0a487b380] Setting default whitelist 'file,crypto,data'
[AVIOContext @ 000001f0a48d7980] Statistics: 621673 bytes read, 0 seeks
[libx264 @ 000001f0a341e180] frame=  55 QP=16.97 NAL=2 Slice:P Poc:110 I:25   P:92   SKIP:16783 size=370 bytes
[image2 @ 000001f0a2e9ec40] Opening 'D:/ART/PersonalProjects/Video/animation/Guppy Bowl/Final/frame0127.png' for reading
[file @ 000001f0a487bf80] Setting default whitelist 'file,crypto,data'
[AVIOContext @ 000001f0a48d7b00] Statistics: 621673 bytes read, 0 seeks
[libx264 @ 000001f0a341e180] frame=  56 QP=19.76 NAL=2 Slice:P Poc:112 I:278  P:726  SKIP:15896 size=10759 bytes
[libx264 @ 000001f0a341e180] frame=  57 QP=19.82 NAL=2 Slice:P Poc:114 I:157  P:232  SKIP:16511 size=3366 bytes
[libx264 @ 000001f0a341e180] frame=  58 QP=19.14 NAL=2 Slice:P Poc:116 I:296  P:686  SKIP:15918 size=10906 bytes
[libx264 @ 000001f0a341e180] frame=  59 QP=17.91 NAL=2 Slice:P Poc:118 I:23   P:76   SKIP:16801 size=331 bytes
[libx264 @ 000001f0a341e180] frame=  60 QP=19.51 NAL=2 Slice:P Poc:120 I:469  P:665  SKIP:15766 size=13381 bytes
[libx264 @ 000001f0a341e180] frame=  61 QP=17.77 NAL=2 Slice:P Poc:122 I:14   P:132  SKIP:16754 size=429 bytes
[libx264 @ 000001f0a341e180] frame=  62 QP=20.21 NAL=2 Slice:P Poc:124 I:454  P:673  SKIP:15773 size=13556 bytes
[libx264 @ 000001f0a341e180] frame=  63 QP=18.32 NAL=2 Slice:P Poc:126 I:199  P:331  SKIP:16370 size=3502 bytes
[libx264 @ 000001f0a341e180] frame=  64 QP=19.45 NAL=2 Slice:P Poc:128 I:429  P:704  SKIP:15767 size=12979 bytes
[libx264 @ 000001f0a341e180] frame=  65 QP=15.96 NAL=2 Slice:P Poc:130 I:22   P:86   SKIP:16792 size=331 bytes
[libx264 @ 000001f0a341e180] frame=  66 QP=18.49 NAL=2 Slice:P Poc:132 I:610  P:759  SKIP:15531 size=16017 bytes
[libx264 @ 000001f0a341e180] frame=  67 QP=17.77 NAL=2 Slice:P Poc:134 I:23   P:169  SKIP:16708 size=583 bytes
[libx264 @ 000001f0a341e180] frame=  68 QP=19.85 NAL=2 Slice:P Poc:136 I:416  P:699  SKIP:15785 size=13696 bytes
[out_0_0 @ 000001f0a487b480] EOF on sink link out_0_0:default.
No more output streams to write to, finishing.
[libx264 @ 000001f0a341e180] frame=  69 QP=18.41 NAL=2 Slice:P Poc:138 I:247  P:317  SKIP:16336 size=4173 bytes
[libx264 @ 000001f0a341e180] frame=  70 QP=19.77 NAL=2 Slice:P Poc:140 I:389  P:779  SKIP:15732 size=14185 bytes
[libx264 @ 000001f0a341e180] frame=  71 QP=17.87 NAL=2 Slice:P Poc:142 I:20   P:86   SKIP:16794 size=319 bytes
[libx264 @ 000001f0a341e180] frame=  72 QP=19.20 NAL=2 Slice:P Poc:144 I:640  P:732  SKIP:15528 size=17699 bytes
[libx264 @ 000001f0a341e180] frame=  73 QP=16.78 NAL=2 Slice:P Poc:146 I:27   P:146  SKIP:16727 size=483 bytes
[libx264 @ 000001f0a341e180] frame=  74 QP=19.36 NAL=2 Slice:P Poc:148 I:392  P:599  SKIP:15909 size=13962 bytes
[libx264 @ 000001f0a341e180] frame=  75 QP=19.13 NAL=2 Slice:P Poc:150 I:217  P:318  SKIP:16365 size=3319 bytes
[libx264 @ 000001f0a341e180] frame=  76 QP=18.94 NAL=2 Slice:P Poc:152 I:451  P:744  SKIP:15705 size=13634 bytes
[libx264 @ 000001f0a341e180] frame=  77 QP=16.31 NAL=2 Slice:P Poc:154 I:33   P:135  SKIP:16732 size=453 bytes
[libx264 @ 000001f0a341e180] frame=  78 QP=19.06 NAL=2 Slice:P Poc:156 I:676  P:728  SKIP:15496 size=16104 bytes
[libx264 @ 000001f0a341e180] frame=  79 QP=16.73 NAL=2 Slice:P Poc:158 I:26   P:144  SKIP:16730 size=528 bytes
[libx264 @ 000001f0a341e180] frame=  80 QP=19.44 NAL=2 Slice:P Poc:160 I:328  P:763  SKIP:15809 size=11509 bytes
[libx264 @ 000001f0a341e180] frame=  81 QP=17.81 NAL=2 Slice:P Poc:162 I:236  P:285  SKIP:16379 size=4564 bytes
[libx264 @ 000001f0a341e180] frame=  82 QP=20.19 NAL=2 Slice:P Poc:164 I:289  P:815  SKIP:15796 size=10878 bytes
[libx264 @ 000001f0a341e180] frame=  83 QP=16.88 NAL=2 Slice:P Poc:166 I:22   P:79   SKIP:16799 size=317 bytes
[libx264 @ 000001f0a341e180] frame=  84 QP=19.92 NAL=2 Slice:P Poc:168 I:491  P:715  SKIP:15694 size=14153 bytes
[libx264 @ 000001f0a341e180] frame=  85 QP=15.04 NAL=2 Slice:P Poc:170 I:18   P:145  SKIP:16737 size=473 bytes
[libx264 @ 000001f0a341e180] frame=  86 QP=19.92 NAL=2 Slice:P Poc:172 I:310  P:722  SKIP:15868 size=11262 bytes
[libx264 @ 000001f0a341e180] frame=  87 QP=18.20 NAL=2 Slice:P Poc:174 I:224  P:311  SKIP:16365 size=4245 bytes
[libx264 @ 000001f0a341e180] frame=  88 QP=19.39 NAL=2 Slice:P Poc:176 I:332  P:855  SKIP:15713 size=11919 bytes
[libx264 @ 000001f0a341e180] frame=  89 QP=18.42 NAL=2 Slice:P Poc:178 I:16   P:99   SKIP:16785 size=348 bytes
[libx264 @ 000001f0a341e180] frame=  90 QP=19.36 NAL=2 Slice:P Poc:180 I:556  P:767  SKIP:15577 size=14549 bytes
[libx264 @ 000001f0a341e180] frame=  91 QP=20.19 NAL=2 Slice:P Poc:182 I:18   P:123  SKIP:16759 size=420 bytes
[libx264 @ 000001f0a341e180] frame=  92 QP=19.59 NAL=2 Slice:P Poc:184 I:394  P:600  SKIP:15906 size=11678 bytes
[libx264 @ 000001f0a341e180] frame=  93 QP=18.90 NAL=2 Slice:P Poc:186 I:227  P:271  SKIP:16402 size=4057 bytes
[libx264 @ 000001f0a341e180] frame=  94 QP=19.29 NAL=2 Slice:P Poc:188 I:361  P:722  SKIP:15817 size=11813 bytes
[libx264 @ 000001f0a341e180] frame=  95 QP=15.01 NAL=2 Slice:P Poc:190 I:17   P:118  SKIP:16765 size=373 bytes
[libx264 @ 000001f0a341e180] frame=  96 QP=19.54 NAL=2 Slice:P Poc:192 I:555  P:741  SKIP:15604 size=14411 bytes
[libx264 @ 000001f0a341e180] frame=  97 QP=16.92 NAL=2 Slice:P Poc:194 I:23   P:126  SKIP:16751 size=502 bytes
[libx264 @ 000001f0a341e180] frame=  98 QP=18.80 NAL=2 Slice:P Poc:196 I:401  P:673  SKIP:15826 size=12810 bytes
[libx264 @ 000001f0a341e180] frame=  99 QP=18.97 NAL=2 Slice:P Poc:198 I:212  P:296  SKIP:16392 size=3394 bytes
[libx264 @ 000001f0a341e180] frame= 100 QP=17.96 NAL=2 Slice:P Poc:200 I:453  P:753  SKIP:15694 size=14075 bytes
[libx264 @ 000001f0a341e180] frame= 101 QP=14.36 NAL=2 Slice:P Poc:202 I:23   P:106  SKIP:16771 size=385 bytes
[libx264 @ 000001f0a341e180] frame= 102 QP=19.11 NAL=2 Slice:P Poc:204 I:507  P:718  SKIP:15675 size=14054 bytes
[libx264 @ 000001f0a341e180] frame= 103 QP=17.07 NAL=2 Slice:P Poc:206 I:29   P:141  SKIP:16730 size=507 bytes
[libx264 @ 000001f0a341e180] frame= 104 QP=19.99 NAL=2 Slice:P Poc:208 I:423  P:680  SKIP:15797 size=12655 bytes
[libx264 @ 000001f0a341e180] frame= 105 QP=18.66 NAL=2 Slice:P Poc:210 I:199  P:365  SKIP:16336 size=3919 bytes
[libx264 @ 000001f0a341e180] frame= 106 QP=18.87 NAL=2 Slice:P Poc:212 I:314  P:720  SKIP:15866 size=12342 bytes
[libx264 @ 000001f0a341e180] frame= 107 QP=16.80 NAL=2 Slice:P Poc:214 I:17   P:91   SKIP:16792 size=356 bytes
[libx264 @ 000001f0a341e180] frame= 108 QP=18.30 NAL=2 Slice:P Poc:216 I:458  P:791  SKIP:15651 size=13352 bytes
[libx264 @ 000001f0a341e180] frame= 109 QP=15.31 NAL=2 Slice:P Poc:218 I:25   P:117  SKIP:16758 size=409 bytes
[libx264 @ 000001f0a341e180] frame= 110 QP=17.90 NAL=2 Slice:P Poc:220 I:315  P:605  SKIP:15980 size=10873 bytes
[libx264 @ 000001f0a341e180] frame= 111 QP=18.34 NAL=2 Slice:P Poc:222 I:243  P:289  SKIP:16368 size=3859 bytes
[libx264 @ 000001f0a341e180] frame= 112 QP=18.19 NAL=2 Slice:P Poc:224 I:414  P:639  SKIP:15847 size=12986 bytes
[libx264 @ 000001f0a341e180] frame= 113 QP=17.13 NAL=2 Slice:P Poc:226 I:16   P:101  SKIP:16783 size=379 bytes
[libx264 @ 000001f0a341e180] frame= 114 QP=17.77 NAL=2 Slice:P Poc:228 I:547  P:744  SKIP:15609 size=15634 bytes
[libx264 @ 000001f0a341e180] frame= 115 QP=16.00 NAL=2 Slice:P Poc:230 I:19   P:104  SKIP:16777 size=400 bytes
[libx264 @ 000001f0a341e180] frame= 116 QP=18.72 NAL=2 Slice:P Poc:232 I:412  P:664  SKIP:15824 size=14575 bytes
[libx264 @ 000001f0a341e180] frame= 117 QP=17.34 NAL=2 Slice:P Poc:234 I:288  P:272  SKIP:16340 size=4754 bytes
[libx264 @ 000001f0a341e180] frame= 118 QP=17.64 NAL=2 Slice:P Poc:236 I:421  P:841  SKIP:15638 size=16441 bytes
[libx264 @ 000001f0a341e180] frame= 119 QP=17.06 NAL=2 Slice:P Poc:238 I:16   P:100  SKIP:16784 size=382 bytes
[libx264 @ 000001f0a341e180] frame= 120 QP=19.36 NAL=2 Slice:P Poc:240 I:510  P:818  SKIP:15572 size=17725 bytes
[libx264 @ 000001f0a341e180] frame= 121 QP=17.93 NAL=2 Slice:P Poc:242 I:19   P:133  SKIP:16748 size=455 bytes
[libx264 @ 000001f0a341e180] frame= 122 QP=19.86 NAL=2 Slice:P Poc:244 I:305  P:776  SKIP:15819 size=14523 bytes
[libx264 @ 000001f0a341e180] frame= 123 QP=20.45 NAL=2 Slice:P Poc:246 I:237  P:255  SKIP:16408 size=3916 bytes
[libx264 @ 000001f0a341e180] frame= 124 QP=20.11 NAL=2 Slice:P Poc:248 I:332  P:794  SKIP:15774 size=13965 bytes
[libx264 @ 000001f0a341e180] frame= 125 QP=15.00 NAL=2 Slice:P Poc:250 I:17   P:76   SKIP:16807 size=279 bytes
[libx264 @ 000001f0a341e180] frame= 126 QP=17.79 NAL=2 Slice:P Poc:252 I:539  P:754  SKIP:15607 size=14889 bytes
[libx264 @ 000001f0a341e180] frame= 127 QP=19.98 NAL=2 Slice:P Poc:254 I:24   P:80   SKIP:16796 size=307 bytes
Not writing 'clli' atom. No content light level info.
Not writing 'mdcv' atom. Missing mastering metadata.
frame=  128 fps= 40 q=-1.0 Lsize=    1009kB time=00:00:05.29 bitrate=1562.2kbits/s speed=1.64x    
[AVIOContext @ 000001f0a2e9eb00] Statistics: 0 seeks, 6 writeouts
video:1008kB audio:0kB subtitle:0kB other streams:0kB global headers:0kB muxing overhead: 0.130430%
Input file #0 (D:/ART/PersonalProjects/Video/animation/Guppy Bowl/Final/frame%04d.png):
  Input stream #0:0 (video): 128 packets read (78194620 bytes); 128 frames decoded; 
  Total: 128 packets (78194620 bytes) demuxed
Output file #0 (D:/ART/PersonalProjects/Video/animation/Guppy Bowl/Final\GuppyBowl.mp4):
  Output stream #0:0 (video): 128 frames encoded; 128 packets muxed (1031969 bytes); 
  Total: 128 packets (1031969 bytes) muxed
128 frames successfully decoded, 0 decoding errors
[AVIOContext @ 000001f0a4866dc0] Statistics: 2 seeks, 7 writeouts
[libx264 @ 000001f0a341e180] frame I:1     Avg QP:12.94  size:108020
[libx264 @ 000001f0a341e180] frame P:127   Avg QP:18.26  size:  7270
[libx264 @ 000001f0a341e180] mb I  I16..4: 85.8%  0.0% 14.2%
[libx264 @ 000001f0a341e180] mb P  I16..4:  1.0%  0.0%  0.4%  P16..4:  1.7%  0.7%  0.3%  0.0%  0.0%    skip:95.9%
[libx264 @ 000001f0a341e180] coded y,uvDC,uvAC intra: 15.1% 42.8% 39.3% inter: 0.2% 1.2% 0.7%
[libx264 @ 000001f0a341e180] i16 v,h,dc,p: 88% 10%  2%  1%
[libx264 @ 000001f0a341e180] i4 v,h,dc,ddl,ddr,vr,hd,vl,hu: 15% 23% 40%  3%  4%  3%  5%  3%  4%
[libx264 @ 000001f0a341e180] i8c dc,h,v,p: 62% 14% 22%  2%
[libx264 @ 000001f0a341e180] ref P L0: 71.2% 12.3% 16.5%
[libx264 @ 000001f0a341e180] kb/s:1547.01
